<?xml version="1.0" encoding="iso-8859-1"?>
<!-- Generator: Adobe Illustrator 19.0.0, SVG Export Plug-In . SVG Version: 6.00 Build 0)  -->
<svg version="1.1" id="Layer_1" xmlns="http://www.w3.org/2000/svg" xmlns:xlink="http://www.w3.org/1999/xlink" x="0px" y="0px"
	 viewBox="0 0 512 512" style="enable-background:new 0 0 512 512;" xml:space="preserve">
<path style="fill:#FF7058;" d="M46.933,247.467V374.4c-5.333,0-10.667-1.067-16-3.2C12.8,365.867,0,348.8,0,328.533V294.4
	c0-20.267,12.8-37.333,30.933-43.733C35.2,248.533,41.6,247.467,46.933,247.467z"/>
<path style="fill:#40596B;" d="M115.2,398.933H68.267c-11.733,0-21.333-9.6-21.333-21.333V244.267
	c0-11.733,9.6-21.333,21.333-21.333H115.2c11.733,0,21.333,9.6,21.333,21.333V377.6C136.533,389.333,126.933,398.933,115.2,398.933z
	"/>
<path style="fill:#FF7058;" d="M512,294.4v34.133c0,20.267-12.8,37.333-30.933,43.733c-5.333,2.133-10.667,3.2-16,3.2v-128
	c5.333,0,10.667,1.067,16,3.2C499.2,257.067,512,274.133,512,294.4z"/>
<path style="fill:#40596B;" d="M396.8,398.933h46.933c11.733,0,21.333-9.6,21.333-21.333V244.267c0-11.733-9.6-21.333-21.333-21.333
	H396.8c-11.733,0-21.333,9.6-21.333,21.333V377.6C375.467,389.333,385.067,398.933,396.8,398.933z"/>
<g>
	<path style="fill:#CDD6E0;" d="M441.6,201.6v21.333h-42.667V201.6c0-78.933-64-142.933-142.933-142.933
		s-142.933,64-142.933,142.933v21.333H70.4V201.6C70.4,99.2,153.6,14.933,256,14.933S441.6,99.2,441.6,201.6z"/>
	<path style="fill:#CDD6E0;" d="M441.6,398.933c0,44.8-37.333,82.133-82.133,82.133H284.8V438.4h74.667
		c21.333,0,39.467-18.133,39.467-39.467H441.6z"/>
</g>
<path style="fill:#F1543F;" d="M30.933,250.667c5.333-2.133,10.667-3.2,16-3.2V374.4c-5.333,0-10.667-1.067-16-3.2V250.667z"/>
<g>
	<rect x="70.4" y="206.933" style="fill:#BDCCDB;" width="42.667" height="16"/>
	<rect x="398.933" y="206.933" style="fill:#BDCCDB;" width="42.667" height="16"/>
</g>
<path style="fill:#F1543F;" d="M481.067,250.667v121.6c-5.333,2.133-10.667,3.2-16,3.2v-128
	C470.4,247.467,475.733,248.533,481.067,250.667z"/>
<path style="fill:#BDCCDB;" d="M350.933,445.867v29.867c0,2.133,0,4.267,0,6.4h-65.067v-42.667h65.067
	C349.867,441.6,350.933,443.733,350.933,445.867z"/>
<path style="fill:#FF7058;" d="M313.6,497.067h-80c-11.733,0-21.333-9.6-21.333-21.333v-29.867c0-11.733,9.6-21.333,21.333-21.333
	h80c11.733,0,21.333,9.6,21.333,21.333v29.867C334.933,487.467,325.333,497.067,313.6,497.067z"/>
<g>
</g>
<g>
</g>
<g>
</g>
<g>
</g>
<g>
</g>
<g>
</g>
<g>
</g>
<g>
</g>
<g>
</g>
<g>
</g>
<g>
</g>
<g>
</g>
<g>
</g>
<g>
</g>
<g>
</g>
</svg>
