<?xml version="1.0" encoding="iso-8859-1"?>
<!-- Generator: Adobe Illustrator 19.0.0, SVG Export Plug-In . SVG Version: 6.00 Build 0)  -->
<svg version="1.1" id="Capa_1" xmlns="http://www.w3.org/2000/svg" xmlns:xlink="http://www.w3.org/1999/xlink" x="0px" y="0px"
	 viewBox="0 0 512.551 512.551" style="enable-background:new 0 0 512.551 512.551;" xml:space="preserve">
<path style="fill:#4CDBC4;" d="M88.833,438.951l-32,36.267c-3.2,4.267-7.467,5.333-11.733,3.2c-4.267-1.067-7.467-5.333-7.467-9.6
	l-4.267-59.733H0.3l4.267,61.867c1.067,11.733,6.4,22.4,14.933,29.867c4.267,4.267,9.6,7.467,16,9.6
	c4.267,2.133,10.667,2.133,16,2.133c11.733-1.067,22.4-6.4,29.867-14.933l32-36.267L88.833,438.951z"/>
<polygon style="fill:#40596B;" points="136.833,458.151 88.833,416.551 269.1,136.017 391.767,243.751 "/>
<path style="fill:#334A5E;" d="M275.5,253.351L275.5,253.351c-9.6-8.533-24.533-7.467-33.067,2.133l-41.6,45.867
	c-8.533,9.6-7.467,24.533,2.133,33.067c9.6,8.533,24.533,7.467,33.067-2.133l41.6-45.867
	C286.167,276.817,285.1,261.884,275.5,253.351z"/>
<g>
	<polygon style="fill:#F2F2F2;" points="106.967,491.217 136.833,458.151 88.833,416.551 60.033,449.617 	"/>
	<path style="fill:#F2F2F2;" d="M481.367,205.351c-44.8,51.2-122.667,56.533-174.933,11.733
		C256.3,171.217,250.967,93.351,295.767,42.151S418.433-14.383,470.7,30.417C521.9,76.284,526.167,154.151,481.367,205.351z"/>
</g>
<path style="fill:#54C0EB;" d="M291.5,287.484c-11.733,12.8-32,14.933-44.8,3.2c-12.8-11.733-14.933-32-3.2-44.8s32-14.933,44.8-3.2
	C301.1,253.351,303.233,273.617,291.5,287.484z"/>
<path style="fill:#E8EAEA;" d="M495.233,176.551l-170.667-153.6c-12.8-11.733-33.067-10.667-44.8,2.133s-10.667,33.067,2.133,44.8
	l170.667,153.6c12.8,11.733,33.067,10.667,44.8-2.133C509.1,208.551,508.033,188.284,495.233,176.551z"/>
<g>
</g>
<g>
</g>
<g>
</g>
<g>
</g>
<g>
</g>
<g>
</g>
<g>
</g>
<g>
</g>
<g>
</g>
<g>
</g>
<g>
</g>
<g>
</g>
<g>
</g>
<g>
</g>
<g>
</g>
</svg>
