<?xml version="1.0" encoding="iso-8859-1"?>
<!-- Generator: Adobe Illustrator 19.0.0, SVG Export Plug-In . SVG Version: 6.00 Build 0)  -->
<svg version="1.1" id="Capa_1" xmlns="http://www.w3.org/2000/svg" xmlns:xlink="http://www.w3.org/1999/xlink" x="0px" y="0px"
	 viewBox="0 0 512 512" style="enable-background:new 0 0 512 512;" xml:space="preserve">
<path style="fill:#40596B;" d="M387.2,121.6V62.933H124.8V121.6H82.133V62.933c0-23.467,19.2-42.667,42.667-42.667h263.467
	c23.467,0,42.667,19.2,42.667,42.667V121.6H387.2z"/>
<path style="fill:#CDD6E0;" d="M21.333,118.4h469.333C502.4,118.4,512,128,512,139.733v48c-170.667,84.267-341.333-84.267-512,0v-48
	C0,128,9.6,118.4,21.333,118.4z"/>
<path style="fill:#F2F2F2;" d="M0,187.733V457.6c0,11.733,9.6,21.333,21.333,21.333h469.333c11.733,0,21.333-9.6,21.333-21.333
	V187.733C341.333,272,170.667,103.467,0,187.733z"/>
<g>
	<path style="fill:#FF7058;" d="M382.933,240h75.733C470.4,240,480,249.6,480,261.333v149.333C480,422.4,470.4,432,458.667,432
		h-75.733c-11.733,0-21.333-9.6-21.333-21.333V261.333C361.6,249.6,371.2,240,382.933,240z"/>
	<path style="fill:#FF7058;" d="M310.4,261.333v149.333c0,11.733-9.6,21.333-21.333,21.333H53.333C41.6,432,32,422.4,32,410.667
		V261.333C32,249.6,41.6,240,53.333,240h235.733C300.8,240,310.4,249.6,310.4,261.333z"/>
</g>
<g>
	<rect x="389.333" y="478.933" style="fill:#CDD6E0;" width="69.333" height="12.8"/>
	<rect x="53.333" y="478.933" style="fill:#CDD6E0;" width="69.333" height="12.8"/>
</g>
<g>
	<rect x="309.333" y="99.2" style="fill:#FF7058;" width="30.933" height="19.2"/>
	<rect x="263.467" y="99.2" style="fill:#FF7058;" width="30.933" height="19.2"/>
	<rect x="217.6" y="99.2" style="fill:#FF7058;" width="30.933" height="19.2"/>
	<rect x="171.733" y="99.2" style="fill:#FF7058;" width="30.933" height="19.2"/>
</g>
<g>
	<path style="fill:#F1543F;" d="M270.933,336L270.933,336c0-22.4-18.133-39.467-39.467-39.467h-121.6
		c-22.4,0-39.467,18.133-39.467,39.467l0,0c0,22.4,18.133,39.467,39.467,39.467h121.6C253.867,375.467,270.933,357.333,270.933,336z
		"/>
	<path style="fill:#F1543F;" d="M257.067,336L257.067,336c0-16-12.8-28.8-28.8-28.8H114.133c-16-1.067-28.8,12.8-28.8,28.8l0,0
		c0,16,12.8,28.8,28.8,28.8H227.2C244.267,364.8,257.067,352,257.067,336z"/>
</g>
<path style="fill:#FFFFFF;" d="M96,336c0,9.6,8.533,18.133,18.133,18.133H227.2c9.6,0,17.067-7.467,18.133-16
	c0-1.067,0-1.067,0-2.133s0-1.067,0-2.133c-1.067-9.6-8.533-16-18.133-16H114.133C104.533,317.867,96,325.333,96,336z"/>
<path style="fill:#40596B;" d="M183.467,336c0,6.4,2.133,12.8,5.333,18.133h38.4c9.6,0,17.067-7.467,18.133-16
	c0-1.067,0-1.067,0-2.133s0-1.067,0-2.133c-1.067-9.6-8.533-16-18.133-16h-38.4C185.6,323.2,183.467,328.533,183.467,336z"/>
<path style="fill:#FFD15C;" d="M200.533,336c0,6.4,2.133,12.8,5.333,18.133H227.2c9.6,0,17.067-7.467,18.133-16
	c0-1.067,0-1.067,0-2.133s0-1.067,0-2.133c-1.067-9.6-8.533-16-18.133-16h-21.333C202.667,323.2,200.533,328.533,200.533,336z"/>
<path style="fill:#40596B;" d="M157.867,336c0,6.4-2.133,12.8-5.333,18.133h-38.4c-9.6,0-17.067-7.467-18.133-16
	c0-1.067,0-1.067,0-2.133s0-1.067,0-2.133c1.067-9.6,8.533-16,18.133-16h38.4C155.733,323.2,157.867,328.533,157.867,336z"/>
<circle style="fill:#FFFFFF;" cx="228.267" cy="336" r="18.133"/>
<path style="fill:#FFD15C;" d="M140.8,336c0,6.4-2.133,12.8-5.333,18.133h-21.333c-9.6,0-17.067-7.467-18.133-16
	c0-1.067,0-1.067,0-2.133s0-1.067,0-2.133c1.067-9.6,8.533-16,18.133-16h21.333C138.667,323.2,140.8,328.533,140.8,336z"/>
<circle style="fill:#FFFFFF;" cx="114.133" cy="336" r="18.133"/>
<rect x="361.6" y="258.133" style="fill:#F1543F;" width="118.4" height="8.533"/>
<rect id="SVGCleanerId_0" x="361.6" y="282.667" style="fill:#F1543F;" width="118.4" height="8.533"/>
<rect id="SVGCleanerId_1" x="361.6" y="307.2" style="fill:#F1543F;" width="118.4" height="8.533"/>
<rect id="SVGCleanerId_2" x="361.6" y="331.733" style="fill:#F1543F;" width="118.4" height="8.533"/>
<g>
	<rect id="SVGCleanerId_0_1_" x="361.6" y="282.667" style="fill:#F1543F;" width="118.4" height="8.533"/>
</g>
<g>
	<rect id="SVGCleanerId_1_1_" x="361.6" y="307.2" style="fill:#F1543F;" width="118.4" height="8.533"/>
</g>
<g>
	<rect id="SVGCleanerId_2_1_" x="361.6" y="331.733" style="fill:#F1543F;" width="118.4" height="8.533"/>
</g>
<rect x="361.6" y="356.267" style="fill:#F1543F;" width="118.4" height="8.533"/>
<rect id="SVGCleanerId_3" x="361.6" y="380.8" style="fill:#F1543F;" width="118.4" height="8.533"/>
<rect id="SVGCleanerId_4" x="361.6" y="405.333" style="fill:#F1543F;" width="118.4" height="8.533"/>
<g>
	<rect id="SVGCleanerId_3_1_" x="361.6" y="380.8" style="fill:#F1543F;" width="118.4" height="8.533"/>
</g>
<g>
	<rect id="SVGCleanerId_4_1_" x="361.6" y="405.333" style="fill:#F1543F;" width="118.4" height="8.533"/>
</g>
<g>
</g>
<g>
</g>
<g>
</g>
<g>
</g>
<g>
</g>
<g>
</g>
<g>
</g>
<g>
</g>
<g>
</g>
<g>
</g>
<g>
</g>
<g>
</g>
<g>
</g>
<g>
</g>
<g>
</g>
</svg>
